<?xml version="1.0" standalone="no"?>
<svg id="wave" style="transform:rotate(0deg); transition: 0.3s" viewBox="0 0 1440 140" version="1.1" xmlns="http://www.w3.org/2000/svg"><defs><linearGradient id="sw-gradient-0" x1="0" x2="0" y1="1" y2="0"><stop stop-color="rgba(0, 57, 79, 0.788235294117647)" offset="0%"></stop><stop stop-color="rgba(0, 57, 79, 0.47058823529411764)" offset="100%"></stop></linearGradient></defs><path style="transform:translate(0, 0px); opacity:1" fill="url(#sw-gradient-0)" d="M0,42L40,51.3C80,61,160,79,240,86.3C320,93,400,89,480,81.7C560,75,640,65,720,63C800,61,880,65,960,58.3C1040,51,1120,33,1200,37.3C1280,42,1360,70,1440,67.7C1520,65,1600,33,1680,32.7C1760,33,1840,65,1920,70C2000,75,2080,51,2160,42C2240,33,2320,37,2400,39.7C2480,42,2560,42,2640,35C2720,28,2800,14,2880,16.3C2960,19,3040,37,3120,44.3C3200,51,3280,47,3360,58.3C3440,70,3520,98,3600,91C3680,84,3760,42,3840,35C3920,28,4000,56,4080,74.7C4160,93,4240,103,4320,93.3C4400,84,4480,56,4560,42C4640,28,4720,28,4800,35C4880,42,4960,56,5040,67.7C5120,79,5200,89,5280,95.7C5360,103,5440,107,5520,91C5600,75,5680,37,5720,18.7L5760,0L5760,140L5720,140C5680,140,5600,140,5520,140C5440,140,5360,140,5280,140C5200,140,5120,140,5040,140C4960,140,4880,140,4800,140C4720,140,4640,140,4560,140C4480,140,4400,140,4320,140C4240,140,4160,140,4080,140C4000,140,3920,140,3840,140C3760,140,3680,140,3600,140C3520,140,3440,140,3360,140C3280,140,3200,140,3120,140C3040,140,2960,140,2880,140C2800,140,2720,140,2640,140C2560,140,2480,140,2400,140C2320,140,2240,140,2160,140C2080,140,2000,140,1920,140C1840,140,1760,140,1680,140C1600,140,1520,140,1440,140C1360,140,1280,140,1200,140C1120,140,1040,140,960,140C880,140,800,140,720,140C640,140,560,140,480,140C400,140,320,140,240,140C160,140,80,140,40,140L0,140Z"></path></svg>